<svg xmlns="http://www.w3.org/2000/svg" xmlns:xlink="http://www.w3.org/1999/xlink" version="1.1" id="Layer_1" x="0px" y="0px" width="73.3px" height="70px" viewBox="0 0 73.3 70" style="enable-background:new 0 0 73.3 70;" xml:space="preserve">
<style type="text/css">
	.st0{fill:#010101;}
	.st1{fill:#FFFFFF;}
</style>
<g>
	<polygon class="st0" points="73.3,64.4 5.2,70 0,5.5 72.2,3.1  "/>
	<g>
		<path class="st1" d="M39.4,52.2c-0.1,0.8-0.5,1.3-1.3,1.3c-0.3,0-0.9,0-1.8-0.2c-0.8-0.1-1.7-0.3-2.7-0.5s-1.9-0.4-2.7-0.7    c-0.9-0.2-1.5-0.4-1.9-0.5c-0.8-0.3-1.2-1-1.3-2c0-2,0.1-4.5,0.3-7.5c0.2-3,0.5-6,0.9-9.1c0.3-3.1,0.7-6,1.2-8.7    c0.4-2.7,0.9-4.9,1.3-6.5c0.2-0.8,0.8-1.3,1.8-1.3c0.3,0,0.9,0,1.8,0.2c0.9,0.1,1.8,0.3,2.9,0.5c1,0.2,2,0.4,3,0.6    c0.9,0.2,1.6,0.4,1.9,0.5c0.7,0.3,1,0.8,1,1.3c0,0,0,0.1,0,0.1c0,0,0,0.1,0,0.1l0,0.1c-0.4,2.5-0.8,5.1-1.3,7.9    c-0.4,2.8-0.8,5.7-1.2,8.5c-0.4,2.9-0.7,5.7-1,8.4S39.5,50,39.4,52.2z M37.1,0c2.7-0.1,4.8,0.4,6.4,1.6c1.6,1.2,2.4,2.7,2.5,4.6    c0.1,2-0.5,3.8-1.9,5.3c-1.4,1.5-3.4,2.3-5.9,2.4c-2.2,0.1-3.8-0.4-5-1.7c-1.1-1.3-1.7-2.8-1.8-4.7c-0.1-1.3,0.2-2.5,0.9-3.6    C33,2.7,33.7,1.7,34.5,1C35.2,0.4,36.1,0.1,37.1,0z"/>
	</g>
</g>
</svg>