<svg id="Layer_2" data-name="Layer 2" xmlns="http://www.w3.org/2000/svg" viewBox="0 0 452 420"><defs><style>.cls-1{fill:#fff;}</style></defs><title>Artboard 1</title><path class="cls-1" d="M175,403.73c-.52-15,0-43,0-43s-40,7-59-9c-9.24-7.79-7.79-21.79-21-35-8-8-19-13-19-19s16-2,23,1,14,12,19,19,12,21,30,21,28-5,28-5c0-14,12-28,12-28s-39.93-5.22-58-20c-22-18-32.37-39-34-74-2-43,22-61,22-61-12-20-3.6-51.71,1-55,7-5,50,12,55,21,13-6,73-13,103,0,30-21,54-23,56-22s13,34,3,55c6.18,6.74,21.19,23,20,67-1,37-13.31,49.48-22,60-19,23-71,28-71,28a38.24,38.24,0,0,1,9,12c6,10,5,42,5,84,0,7.38,4.3,9.95,11.13,9.4C371,383.82,431,306.29,431,214.73c0-113.22-91.78-205-205-205s-205,91.78-205,205c0,91.47,59.92,168.94,142.64,195.33C170.39,410.87,175.2,409.51,175,403.73Z"/></svg>