<svg xmlns="http://www.w3.org/2000/svg" viewBox="0 0 700 700"><defs><style>.cls-1{fill:#fff;}</style></defs><title>Artboard 1</title><g id="Layer_1" data-name="Layer 1"><path class="cls-1" d="M575.87,87H136.13A37.24,37.24,0,0,0,99,124.13V563.87A37.24,37.24,0,0,0,136.13,601H575.87A37.24,37.24,0,0,0,613,563.87V124.13A37.24,37.24,0,0,0,575.87,87ZM254.5,525.5h-75v-244h75Zm-37-274a45,45,0,1,1,45-45A45,45,0,0,1,217.5,251.5Zm246,274s-1-100-1-135c0-27-13-47.46-39-47-28.5.5-45.5,15.5-47,61v121h-75v-244h75v32s22.52-34.54,63-36C481,276,501.08,287.21,513,299c13,13,25,35.21,25,66,0,72,.5,160.5.5,160.5Z"/></g></svg>