<svg id="Layer_1" data-name="Layer 1" xmlns="http://www.w3.org/2000/svg" viewBox="0 0 649 158"><defs><style>.cls-1{fill:#fff;}</style></defs><title>Artboard 1</title><path class="cls-1" d="M157.44,77.16V8.2h23.64q11.7,0,17.81,4.69t6.11,14a15,15,0,0,1-2.56,8.53A16.54,16.54,0,0,1,195,41.26,15.22,15.22,0,0,1,203.6,47,16.58,16.58,0,0,1,206.65,57q0,9.72-6.22,14.92t-17.84,5.21Zm12-39.92h11.74q5.6,0,8.74-2.54a8.68,8.68,0,0,0,3.15-7.17c0-3.41-1-5.88-2.91-7.39s-5-2.28-9.07-2.28H169.43Zm0,8.8V67.6h13.31c3.75,0,6.69-.94,8.81-2.8A9.82,9.82,0,0,0,194.72,57q0-10.74-11-11Z"/><path class="cls-1" d="M244.36,36.43a28.82,28.82,0,0,0-4.69-.38q-7.92,0-10.66,6.06V77.16H217.5V25.92h11l.28,5.73Q232.94,25,240.33,25a10.8,10.8,0,0,1,4.07.66Z"/><path class="cls-1" d="M251.65,12.61a6.12,6.12,0,0,1,1.68-4.41,6.34,6.34,0,0,1,4.81-1.75A6.43,6.43,0,0,1,263,8.2a6.06,6.06,0,0,1,1.7,4.41,5.9,5.9,0,0,1-1.7,4.33,6.5,6.5,0,0,1-4.83,1.73,6.41,6.41,0,0,1-4.81-1.73A6,6,0,0,1,251.65,12.61Zm12.22,64.55H252.36V25.92h11.51Z"/><path class="cls-1" d="M307,77.16a17.58,17.58,0,0,1-1.33-4.78,17.92,17.92,0,0,1-13.45,5.73q-7.73,0-12.6-4.4a14.11,14.11,0,0,1-4.88-10.9q0-8.19,6.09-12.57t17.4-4.38h7.06V42.49a9,9,0,0,0-2.22-6.37q-2.23-2.38-6.78-2.39a10.13,10.13,0,0,0-6.44,2,6.08,6.08,0,0,0-2.51,5H275.85a12.71,12.71,0,0,1,2.8-7.88,18.55,18.55,0,0,1,7.6-5.76A26.67,26.67,0,0,1,297,25q9,0,14.35,4.52t5.49,12.72V65.32q0,6.92,1.94,11v.8Zm-12.65-8.29a13.17,13.17,0,0,0,6.42-1.65,11.1,11.1,0,0,0,4.52-4.46V53.1h-6.2c-4.27,0-7.47.74-9.62,2.23a7.2,7.2,0,0,0-3.22,6.3,6.75,6.75,0,0,0,2.2,5.28A8.54,8.54,0,0,0,294.37,68.87Z"/><path class="cls-1" d="M339.56,25.92l.33,5.92A18.42,18.42,0,0,1,354.81,25q16,0,16.29,18.33V77.16H359.59V44q0-4.87-2.11-7.22c-1.4-1.56-3.7-2.35-6.89-2.35a11.08,11.08,0,0,0-10.37,6.3V77.16H328.71V25.92Z"/><path class="cls-1" d="M444.13,59.4a8.33,8.33,0,0,0-3.19-7q-3.21-2.46-11.54-5a55.69,55.69,0,0,1-13.26-5.59q-9.42-5.92-9.42-15.44a16.81,16.81,0,0,1,6.79-13.74q6.8-5.4,17.65-5.4A29.76,29.76,0,0,1,444,9.91a21.07,21.07,0,0,1,8.86,7.55,19.35,19.35,0,0,1,3.22,10.87H444.13a10.81,10.81,0,0,0-3.38-8.45q-3.39-3.06-9.69-3.06-5.87,0-9.12,2.51a8.37,8.37,0,0,0-3.24,7,7.55,7.55,0,0,0,3.5,6.32q3.51,2.54,11.56,4.93A53.16,53.16,0,0,1,446.69,43a20.45,20.45,0,0,1,7.15,7,18.19,18.19,0,0,1,2.28,9.26A16.44,16.44,0,0,1,449.51,73q-6.61,5.08-17.93,5.09a33.66,33.66,0,0,1-13.76-2.77,23.15,23.15,0,0,1-9.75-7.65,19.07,19.07,0,0,1-3.49-11.37h12q0,5.88,3.88,9.1t11.13,3.22q6.26,0,9.4-2.54A8.17,8.17,0,0,0,444.13,59.4Z"/><path class="cls-1" d="M476.86,31.5A18,18,0,0,1,491.12,25q16.38,0,16.62,18.71V77.16H496.23V44.1c0-3.53-.76-6-2.29-7.5s-3.79-2.21-6.75-2.21a11.1,11.1,0,0,0-10.33,6.16V77.16H465.35V4.41h11.51Z"/><path class="cls-1" d="M550,77.16a17.65,17.65,0,0,1-1.32-4.78,17.94,17.94,0,0,1-13.46,5.73q-7.71,0-12.6-4.4a14.1,14.1,0,0,1-4.87-10.9q0-8.19,6.08-12.57t17.41-4.38h7.06V42.49a9,9,0,0,0-2.23-6.37q-2.22-2.38-6.77-2.39a10.18,10.18,0,0,0-6.45,2,6.08,6.08,0,0,0-2.51,5h-11.5a12.76,12.76,0,0,1,2.79-7.88,18.61,18.61,0,0,1,7.6-5.76A26.71,26.71,0,0,1,540,25q9,0,14.35,4.52t5.49,12.72V65.32q0,6.92,2,11v.8Zm-12.65-8.29a13.12,13.12,0,0,0,6.42-1.65,11.13,11.13,0,0,0,4.53-4.46V53.1h-6.21c-4.26,0-7.47.74-9.61,2.23a7.2,7.2,0,0,0-3.22,6.3,6.72,6.72,0,0,0,2.2,5.28A8.52,8.52,0,0,0,537.34,68.87Z"/><path class="cls-1" d="M616.87,61.3,625,25.92h11.23l-14,51.24h-9.48L601.81,42,591,77.16h-9.48l-14-51.24h11.23l8.29,35,10.51-35h8.67Z"/><path class="cls-1" d="M157.35,106.91h18.52v2.85H160.78v12.78h12.74v2.85H160.78v15.77h-3.43Z"/><path class="cls-1" d="M204.83,141.16H201.4v-4.7c-1.61,3.38-5.14,5.14-9.11,5.14-6.08,0-10.88-3.72-10.88-11.56V114.41h3.38v15.24c0,5.93,3.24,9,8.14,9s8.47-3.13,8.47-9.65V114.41h3.43Z"/><path class="cls-1" d="M212.82,104.91h3.43v36.25h-3.43Z"/><path class="cls-1" d="M224.19,104.91h3.43v36.25h-3.43Z"/><path class="cls-1" d="M259.52,141.51c-6.86,0-11.37-3.92-11.57-9.17h3.63c.29,2.85,2.4,6.27,7.94,6.27,4.75,0,7.54-2.79,7.54-6.32,0-10.09-18.81-3.72-18.81-16.61,0-5.29,4.36-9.16,11-9.16s10.44,3.63,11,8.33h-3.73c-.39-2.4-2.69-5.34-7.45-5.39-4,0-7.34,2.16-7.34,6.13,0,9.89,18.81,3.82,18.81,16.56C270.54,136.8,266.77,141.51,259.52,141.51Z"/><path class="cls-1" d="M278.28,117.3h-3.72v-2.89h3.72V107.7h3.48v6.71h7.35v2.89h-7.35v16.61c0,3.28,1.13,4.31,4.22,4.31h3.13v2.94h-3.67c-4.66,0-7.16-1.91-7.16-7.25Z"/><path class="cls-1" d="M306.11,114c5.39,0,9.07,2.89,10.59,6.27v-5.88h3.43v26.75H316.7v-5.93c-1.57,3.43-5.29,6.32-10.64,6.32-7.3,0-12.73-5.43-12.73-13.81S298.76,114,306.11,114Zm.64,3c-5.63,0-9.95,3.92-9.95,10.73s4.32,10.83,9.95,10.83,9.95-4.12,9.95-10.78S312.24,117,306.75,117Z"/><path class="cls-1" d="M339.53,114c6.71,0,11.07,3.58,12.3,9.11h-3.68c-.88-3.82-4.11-6.17-8.62-6.17-5.24,0-9.5,3.58-9.5,10.83s4.26,10.87,9.5,10.87c4.51,0,7.69-2.3,8.62-6.22h3.68c-1.23,5.34-5.59,9.11-12.3,9.11-7.54,0-13-5.29-13-13.76S332,114,339.53,114Z"/><path class="cls-1" d="M358.3,104.91h3.43v21.46l10.78-12h4.8l-12.69,13.33,12.79,13.42h-4.66l-11-12v12H358.3Z"/><path class="cls-1" d="M423.81,124.11c0,10.63-6.71,17-18.13,17H395.54V106.91h10.14C417.1,106.91,423.81,113.38,423.81,124.11Zm-18.13,14.21c9.7,0,14.65-5.39,14.65-14.21s-4.95-14.35-14.65-14.35H399v28.56Z"/><path class="cls-1" d="M441.84,141.55c-7.59,0-13.13-5.29-13.13-13.76S434.15,114,441.84,114c7.84,0,12.64,5.58,12.64,12.4a23,23,0,0,1-.1,2.69H432.19c.29,6.27,4.65,9.55,9.65,9.55,4.56,0,7.64-2.4,8.62-6h3.63C452.87,137.73,448.55,141.55,441.84,141.55Zm-9.65-15.23H451c.15-6.23-4.36-9.36-9.31-9.36S432.58,120.09,432.19,126.32Z"/><path class="cls-1" d="M461.39,114.41l9,23.42,9-23.42h3.63l-10.73,26.75h-3.87l-10.73-26.75Z"/><path class="cls-1" d="M499.42,141.55c-7.6,0-13.13-5.29-13.13-13.76S491.72,114,499.42,114s12.64,5.58,12.64,12.4a23,23,0,0,1-.1,2.69h-22.2c.3,6.27,4.66,9.55,9.66,9.55,4.55,0,7.64-2.4,8.62-6h3.63C510.44,137.73,506.13,141.55,499.42,141.55Zm-9.66-15.23h18.82c.15-6.23-4.36-9.36-9.31-9.36S490.16,120.09,489.76,126.32Z"/><path class="cls-1" d="M518.48,104.91h3.43v36.25h-3.43Z"/><path class="cls-1" d="M541.56,141.55c-7.55,0-13.28-5.29-13.28-13.76S534.16,114,541.65,114,555,119.26,555,127.79,549.1,141.55,541.56,141.55Zm0-3c5,0,9.94-3.43,9.94-10.78S546.7,117,541.6,117s-9.84,3.43-9.84,10.78S536.46,138.57,541.56,138.57Z"/><path class="cls-1" d="M575.46,114c7.3,0,12.74,5.34,12.74,13.72s-5.44,13.81-12.74,13.81a11.43,11.43,0,0,1-10.63-6.27V153.8h-3.38V114.41h3.38v5.88C566.4,116.91,570.12,114,575.46,114Zm-.68,3c-5.44,0-9.95,4.11-9.95,10.78s4.51,10.78,9.95,10.78c5.63,0,9.94-4.07,9.94-10.83S580.41,117,574.78,117Z"/><path class="cls-1" d="M606.23,141.55c-7.59,0-13.13-5.29-13.13-13.76S598.54,114,606.23,114s12.65,5.58,12.65,12.4a23,23,0,0,1-.1,2.69h-22.2c.3,6.27,4.66,9.55,9.65,9.55,4.56,0,7.65-2.4,8.63-6h3.62C617.26,137.73,613,141.55,606.23,141.55Zm-9.65-15.23H615.4c.14-6.23-4.36-9.36-9.31-9.36S597,120.09,596.58,126.32Z"/><path class="cls-1" d="M628.73,141.16H625.3V114.41h3.43v4.75c1.47-3.28,4.55-5.24,9.16-5.24v3.58H637c-4.46,0-8.23,2-8.23,8.72Z"/><rect class="cls-1" x="25" y="28" width="114" height="114"/><rect x="15" y="18" width="114" height="114"/><path class="cls-1" d="M73.61,56A9.41,9.41,0,0,0,77,48.23q0-5.53-3.15-8t-9.82-2.46H51.44v21H64.15Q70.2,58.74,73.61,56Z"/><path class="cls-1" d="M66.92,68.28H51.44V91.6h14.4q6.1,0,9.54-3a10.62,10.62,0,0,0,3.43-8.41Q78.81,68.53,66.92,68.28Z"/><path class="cls-1" d="M5,8V122H119V8ZM85,96.32Q78.26,102,65.69,102H38.46V27.31H64.05q12.66,0,19.27,5.08t6.62,15.12a16.08,16.08,0,0,1-2.77,9.23,17.81,17.81,0,0,1-8.1,6.36,16.47,16.47,0,0,1,9.36,6.18,18,18,0,0,1,3.3,10.89Q91.73,90.69,85,96.32Z"/></svg>