<svg id="fullName" data-name="Layer 1" xmlns="http://www.w3.org/2000/svg" viewBox="0 0 571 148"><path class="my-name" d="M77.24,83.64c0,11.27-8.83,17.85-25.75,17.85H18.78V35.7H49.61c15.79,0,24.25,6.67,24.25,17.11A15.78,15.78,0,0,1,65.4,67.28C72.45,69.54,77.24,75.08,77.24,83.64ZM31,45.29V63.43H48.29c8.46,0,13.25-3,13.25-9s-4.79-9.11-13.25-9.11ZM64.93,82.41c0-6.58-5-9.49-14.2-9.49H31v19H50.73C60,91.91,64.93,89,64.93,82.41Z"/><path class="my-name" d="M118.23,50.74V61.92a14.78,14.78,0,0,0-2.73-.28c-8.93,0-14.57,5.26-14.57,15.51v24.34H89.18V51.3h11.19v7.33C103.75,53.37,109.86,50.74,118.23,50.74Z"/><path class="my-name" d="M126.59,36c0-3.95,3.2-7,7.52-7s7.52,2.92,7.52,6.77A7.21,7.21,0,0,1,134.11,43C129.79,43,126.59,39.93,126.59,36Zm1.6,15.32h11.75v50.19H128.19Z"/><path class="my-name" d="M197.37,72.07v29.42H186.28V95.38c-2.82,4.33-8.27,6.77-15.79,6.77-11.47,0-18.7-6.29-18.7-15,0-8.36,5.63-14.94,20.86-14.94h13v-.75c0-6.86-4.13-10.91-12.5-10.91-5.64,0-11.47,1.88-15.23,5l-4.6-8.55c5.36-4.13,13.16-6.2,21.24-6.2C189,50.74,197.37,57.6,197.37,72.07ZM185.62,85.8V80H173.5c-8,0-10.15,3-10.15,6.67,0,4.23,3.57,7,9.58,7C178.67,93.6,183.65,91,185.62,85.8Z"/><path class="my-name" d="M261.86,72.73v28.76H250.11V74.24c0-8.93-4.42-13.26-11.94-13.26-8.37,0-14,5.08-14,15.14v25.37H212.41V51.3H223.6v6.49c3.85-4.61,10-7,17.29-7C252.93,50.74,261.86,57.6,261.86,72.73Z"/><path class="my-name" d="M298.33,94.54l4.23-9.49c5.26,4.23,13.63,7.23,21.71,7.23,10.25,0,14.57-3.66,14.57-8.55,0-14.19-39.1-4.89-39.1-29.33,0-10.62,8.46-19.64,26.51-19.64,7.89,0,16.16,2.07,21.9,5.83l-3.86,9.49a36.54,36.54,0,0,0-18.14-5.17c-10.15,0-14.29,4-14.29,8.93,0,14,39,4.89,39,29,0,10.53-8.55,19.55-26.6,19.55C314,102.43,303.78,99.24,298.33,94.54Z"/><path class="my-name" d="M411.31,72.73v28.76H399.56V74.24c0-8.93-4.41-13.26-11.93-13.26-8.37,0-14,5.08-14,15.14v25.37H361.87V31.75h11.75V57.13c3.86-4.14,9.78-6.39,16.73-6.39C402.38,50.74,411.31,57.6,411.31,72.73Z"/><path class="my-name" d="M468.28,72.07v29.42H457.19V95.38c-2.82,4.33-8.27,6.77-15.79,6.77-11.47,0-18.71-6.29-18.71-15,0-8.36,5.64-14.94,20.87-14.94h13v-.75c0-6.86-4.14-10.91-12.5-10.91-5.64,0-11.47,1.88-15.23,5l-4.61-8.55c5.36-4.13,13.16-6.2,21.25-6.2C459.91,50.74,468.28,57.6,468.28,72.07ZM456.53,85.8V80H444.4c-8,0-10.15,3-10.15,6.67,0,4.23,3.57,7,9.59,7C449.57,93.6,454.55,91,456.53,85.8Z"/><path class="my-name" d="M560.68,51.3l-18.52,50.19H530.88l-13-34.59-13.16,34.59H493.47L475.05,51.3h11.09l13.25,37,13.82-37h9.87l13.54,37.22L550.24,51.3Z"/></svg>