<svg  width="0" height="0"><defs><clipPath id="myClip"><path d="M45.92,152.4V19H66Q79.38,19,87.32,21a32.1,32.1,0,0,1,13.57,7,36.25,36.25,0,0,1,8.9,12.7,38.42,38.42,0,0,1,3.37,15.56q0,14.35-11,24.29A32.25,32.25,0,0,1,119,93.28a35.82,35.82,0,0,1,6.23,20.92,35.53,35.53,0,0,1-11.07,26.44,36.26,36.26,0,0,1-15,9.25q-9.07,2.51-22.73,2.51ZM66.06,76.25h6.31q11.23,0,16.46-5t5.23-14.65q0-9.42-5.35-14.31T73.15,37.45H66.06Zm0,57.22H78.51q13.65,0,20-5.36a18.54,18.54,0,0,0,6.74-14.69A18.83,18.83,0,0,0,98.82,98.9q-6.31-5.79-22.56-5.79H66.06Z"/><path d="M195.79,95.53,237.1,152.4H212.47L174.35,97.77h-3.63V152.4H150.59V19h23.59q26.44,0,38.2,9.94,13,11.07,13,29.22,0,14.17-8.12,24.37A36.21,36.21,0,0,1,195.79,95.53Zm-25.07-15.3h6.4q28.6,0,28.61-21.87,0-20.47-27.83-20.48h-7.18Z"/><path d="M277.29,19V152.4H257.15V19Z"/><path d="M387.74,120H330.61L315.75,152.4h-21.7l66-141.83,63.7,141.83h-22Zm-8.21-18.93L359.74,55.69,339,101.06Z"/><path d="M440.46,152.4V9.88l97.31,101.81V19h20.14V160.52L460.6,59V152.4Z"/><path d="M720,38.83l-16.34,9.68Q699,40.56,694.9,38.14q-4.33-2.76-11.15-2.76-8.38,0-13.92,4.75a14.72,14.72,0,0,0-5.53,11.75q0,9.76,14.52,15.73l13.31,5.45q16.25,6.57,23.77,16t7.52,23.2q0,18.42-12.28,30.43t-30.68,12.1q-17.37,0-28.69-10.29-11.14-10.28-13.92-28.95l20.4-4.5q1.38,11.76,4.84,16.25,6.23,8.64,18.15,8.64a21.06,21.06,0,0,0,15.64-6.3,21.84,21.84,0,0,0,6.23-16,22.41,22.41,0,0,0-1.08-7.13,18.48,18.48,0,0,0-3.37-6,27.29,27.29,0,0,0-5.92-5.1A57.61,57.61,0,0,0,684.09,91l-12.88-5.36Q643.82,74,643.82,51.71a32.14,32.14,0,0,1,11.49-25.15q11.49-10.2,28.61-10.2Q707,16.36,720,38.83Z"/><path d="M767.84,71.16H825.4V19h20.14V152.4H825.4V90.08H767.84V152.4H747.7V19h20.14Z"/><path d="M955.9,120H898.77L883.91,152.4H862.22l66-141.83L991.94,152.4h-22Zm-8.21-18.93L927.9,55.69l-20.74,45.37Z"/><path d="M1004.9,19l34.75,89.2L1076,12.47l34.74,95.68,36.9-89.2h21.87l-59.63,141.92-34.32-94.55L1039.73,161,983,19Z"/></clipPath></defs></svg>