<svg id="Layer_2" data-name="Layer 2" xmlns="http://www.w3.org/2000/svg" viewBox="0 0 75 76"><defs><style>.cls-1{fill:#fff;}</style></defs><title>Artboard 1</title><polygon points="10.5 13.5 68.5 11.5 71.5 62.5 14.5 67.5 10.5 13.5"/><path class="cls-1" d="M29.23,51.92,33.94,51l.37-22.53-5.19-1.09.1-5.91,14.33.24L43.9,27a11.53,11.53,0,0,1,3.37-4.35A7.34,7.34,0,0,1,52,21.16a11.91,11.91,0,0,1,1.62.15,8.94,8.94,0,0,1,1.43.31l-1.19,8.91-4-.17a6.94,6.94,0,0,0-3.57.78A5.47,5.47,0,0,0,44,33.49l-.28,17.66,4.68,1.08-.1,5.88-19.2-.31Z"/></svg>